HIERARCHY
ROOT Hips
{
  OFFSET 83.5936 86.9661 0.498508
  CHANNELS 6 Xposition Yposition Zposition Zrotation Xrotation Yrotation
  JOINT ToSpine
  {
    OFFSET -2.69724 7.43032 -0.144315
    CHANNELS 3 Zrotation Xrotation Yrotation
    JOINT Spine
    {
      OFFSET -0.0310711 10.7595 1.96963
      CHANNELS 3 Zrotation Xrotation Yrotation
      JOINT Spine1
      {
        OFFSET 13.1342 3.43533 0.764692
        CHANNELS 3 Zrotation Xrotation Yrotation
        JOINT Neck
        {
          OFFSET 29.8703 7.82586 -0.130764
          CHANNELS 3 Zrotation Xrotation Yrotation
          JOINT Head
          {
            OFFSET 9.52751 0.295786 -0.907742
            CHANNELS 3 Zrotation Xrotation Yrotation
            End Site
            {
              OFFSET 16.4037 0.713936 2.7358
            }
          }
        }
        JOINT LeftShoulder
        {
          OFFSET 27.5574 4.95586 2.47156
          CHANNELS 3 Zrotation Xrotation Yrotation
          JOINT LeftArm
          {
            OFFSET 1.20734 -0.998971 20.1238
            CHANNELS 3 Zrotation Xrotation Yrotation
            JOINT LeftForeArm
            {
              OFFSET 26.8049 -0.0536703 -0.155908
              CHANNELS 3 Zrotation Xrotation Yrotation
              JOINT LeftHand
              {
                OFFSET 26.6817 0 0.320147
                CHANNELS 3 Zrotation Xrotation Yrotation
                End Site
                {
                  OFFSET 18.6119 0 0.382219
                }
              }
            }
          }
        }
        JOINT RightShoulder
        {
          OFFSET 27.5927 4.71444 -2.65209
          CHANNELS 3 Zrotation Xrotation Yrotation
          JOINT RightArm
          {
            OFFSET 2.83739 -1.17114 -18.7564
            CHANNELS 3 Zrotation Xrotation Yrotation
            JOINT RightForeArm
            {
              OFFSET 28.839 -0.0548439 1.22491
              CHANNELS 3 Zrotation Xrotation Yrotation
              JOINT RightHand
              {
                OFFSET 26.5114 0 -0.101894
                CHANNELS 3 Zrotation Xrotation Yrotation
                End Site
                {
                  OFFSET 18.2168 0 0
                }
              }
            }
          }
        }
      }
    }
  }
  JOINT LeftUpLeg
  {
    OFFSET -4.76168 -1.9167 -10.2353
    CHANNELS 3 Zrotation Xrotation Yrotation
    JOINT LeftLeg
    {
      OFFSET 2.55951 -42.0585 -8.02213
      CHANNELS 3 Zrotation Xrotation Yrotation
      JOINT LeftFoot
      {
        OFFSET 3.16357 -42.5282 -3.95426
        CHANNELS 3 Zrotation Xrotation Yrotation
        JOINT LeftToeBase
        {
          OFFSET 0.346054 -6.02161 12.8035
          CHANNELS 3 Zrotation Xrotation Yrotation
          End Site
          {
            OFFSET 0.134235 -1.35082 5.13018
          }
        }
      }
    }
  }
  JOINT RightUpLeg
  {
    OFFSET -4.94151 -1.41743 10.6446
    CHANNELS 3 Zrotation Xrotation Yrotation
    JOINT RightLeg
    {
      OFFSET -2.56294 -42.0364 -7.94377
      CHANNELS 3 Zrotation Xrotation Yrotation
      JOINT RightFoot
      {
        OFFSET -3.0952 -42.555 -4.02241
        CHANNELS 3 Zrotation Xrotation Yrotation
        JOINT RightToeBase
        {
          OFFSET -0.0828122 -6.13587 12.8035
          CHANNELS 3 Zrotation Xrotation Yrotation
          End Site
          {
            OFFSET -0.131328 -1.35082 5.13018
          }
        }
      }
    }
  }
}
MOTION
Frames:	17
Frame Time:	0.0333333
74.65 94.4501 21.5358 69.176 -47.5174 -9.51055 -70.1915 0 88.8779 41.5696 66.2292 37.7564 3.72748 23.6891 -5.1385 -127.078 20.368 152.223 -157.782 65.2103 -178.525 -2.22765 -22.6205 -36.7748 -50.9278 27.1096 -132.838 15.5759 9.72042 -58.3019 0.420957 0.000576128 0.35866 -0.971032 5.99241 30.9327 -105.444 -45.9099 112.432 33.6269 8.28086 101.952 0.58676 0.000331187 0.0646652 -41.0541 1.5116 108.39 -2.55276 41.8132 -4.58881 9.5421 -13.576 -1.25782 -3.37973 4.42673 5.52951 -63.8079 2.60137 66.5646 9.70816 70.1718 0.281303 2.79609 11.4682 -1.36855 2.48228 -1.61306 -15.5075 
74.9131 93.9949 18.569 64.2758 -58.3775 -19.3413 -70.1915 0 88.8779 45.1953 66.5341 35.1582 2.6882 22.5538 -2.892 -132.893 21.7462 160.983 -159.516 63.6284 -179.813 -2.24793 -22.6062 -36.9761 -61.5819 31.3646 -128.574 17.1812 11.386 -56.9318 0.420957 0.000576128 0.35866 -1.28535 6.57216 34.1173 -84.6463 -45.3887 134.197 28.4045 7.72004 103.671 0.58676 0.000331187 0.0646652 -41.149 1.52165 114.858 -1.82509 39.8744 0.0348844 8.21816 -13.0135 -1.24147 -3.76435 5.28715 5.33003 -65.4849 1.24537 74.3559 7.07571 69.0982 -5.61436 -3.55904 6.90904 0.290432 3.22318 -2.32023 -20.7945 
75.5195 93.8824 14.9229 48.573 -70.6625 -37.6881 -70.1915 0 88.8779 56.6308 68.8921 28.4074 0.123801 22.3919 -1.54352 -136.313 22.2959 168.825 -162.121 62.6106 -177.606 -1.97202 -22.1536 -35.6499 -72.4332 32.9309 -124.112 17.3524 12.7272 -54.3132 0.420957 0.000576128 0.35866 -1.70144 7.55277 36.8635 -69.869 -39.1586 146.361 24.3953 6.79032 104.324 0.58676 0.000331187 0.0646652 -40.4133 4.98501 120.605 -1.18075 39.0827 4.58765 5.80202 -11.0528 -1.1501 -2.94905 3.69809 5.28239 -63.876 -1.09737 79.6671 5.10871 69.4998 -11.7341 -6.81407 4.18247 0.954061 3.34949 -2.267 -21.6586 
76.2337 93.9748 11.4482 7.32254 -78.3235 -79.7252 -70.1915 0 88.8779 73.0139 71.3091 16.4498 -0.879224 22.5785 -0.634965 -138.523 22.509 172.969 -159.422 61.845 -178.92 -2.02547 -22.7462 -34.8202 -83.9958 31.3705 -117.39 17.6225 12.8477 -54.5038 0.420957 0.000576128 0.35866 -1.93569 8.24651 37.6847 -63.66 -34.0761 149.912 25.8233 7.57993 104.959 0.58676 0.000331187 0.0646652 -38.697 10.6997 122.505 -0.95047 42.0813 7.54983 2.92331 -6.46229 -0.810063 -1.17637 -0.914024 8.23396 -63.1503 -2.86682 80.9247 4.19304 65.1657 -8.8864 -8.76829 8.35421 1.27095 3.38916 -2.2269 -21.9175 
77.0844 92.8286 7.80864 -42.1141 -74.0542 -131.056 -70.1915 0 88.8779 80.885 72.4137 9.58203 0.453576 22.5667 0.231448 -138.611 21.6578 175.768 -154.925 60.1905 -179.624 -1.63104 -22.2134 -32.5442 -95.351 29.3498 -109.792 19.8772 12.0822 -59.3967 0.420957 0.000576128 0.35866 -2.04572 8.97464 36.8759 -58.794 -31.5396 152.944 20.799 6.38906 106.023 0.58676 0.000331187 0.0646652 -32.8597 16.9977 121.446 -0.864402 50.916 12.4327 2.37735 -1.46383 -0.480078 0.677203 -2.70642 3.28236 -62.2121 -6.81444 78.7019 2.42622 60.3041 -10.2913 7.19605 -3.58892 -0.296923 3.87444 -5.43202 -27.9817 
77.655 91.4993 5.27493 -56.3654 -65.4196 -146.527 -70.1915 0 88.8779 81.0369 72.5309 10.1969 1.79991 22.6214 0.484248 -137.172 20.3114 176.456 -150.762 58.2935 179.523 -1.69636 -22.6332 -32.2851 -103.462 22.1915 -103.559 20.8301 10.3127 -64.2443 0.420957 0.000576128 0.35866 -1.84039 8.23671 36.5423 -55.3559 -29.9884 154.386 14.946 4.90797 107.428 0.58676 0.000331187 0.0646652 -25.5248 20.4561 112.5 -2.97867 59.0573 7.91259 2.86902 1.19322 -0.395337 1.12336 -2.8292 1.00322 -62.375 -9.61498 73.6852 1.50494 54.4328 -10.1722 15.8118 -16.9389 1.80124 3.60804 -3.3828 -24.1459 
78.4513 90.1958 3.18236 -62.0834 -58.3509 -152.721 -70.1915 0 88.8779 84.978 71.6877 7.84956 2.59646 21.9077 -0.346422 -136.514 19.0374 178.499 -148.453 56.394 179.515 -1.32313 -21.3369 -31.517 -110.493 16.5023 -99.5763 21.5371 8.74796 -68.3474 0.420957 0.000576128 0.35866 -1.80876 8.50121 35.4062 -53.645 -29.133 155.261 13.8168 4.53554 107.476 0.58676 0.000331187 0.0646652 -21.8281 19.8278 100.629 -6.17314 61.4744 -4.47915 1.29552 -0.410537 -0.284172 4.13991 -9.85556 4.75525 -61.8234 -9.6002 75.0924 1.99331 50.2588 -5.01318 14.9811 -24.0365 3.38562 3.46809 -2.34996 -22.5317 
79.5338 88.3514 1.74722 -66.7512 -50.6586 -158.408 -70.1915 0 88.8779 86.8778 71.4672 7.80489 4.65766 21.8787 -1.6215 -135.146 17.896 -178.038 -146.114 54.3206 -179.984 -1.7902 -21.945 -34.5137 -116.995 7.98185 -94.7996 18.7794 6.43873 -71.1686 0.420957 0.000576128 0.35866 -1.84924 8.25503 36.5975 -52.775 -26.2945 154.414 10.6165 3.45732 107.446 0.58676 0.000331187 0.0646652 -22.7594 18.0181 89.7432 -7.00303 60.647 -11.4979 -5.28464 -2.76548 0.24983 7.24173 -15.8634 9.02733 -58.3123 -10.3196 80.2521 3.26072 51.8401 1.32002 10.7176 -30.0041 4.15267 3.03565 -1.17962 -19.1245 
80.6426 87.1588 0.631818 -69.3738 -43.3593 -161.521 -70.1915 0 88.8779 84.9665 71.1398 10.4828 7.63622 21.282 -1.12571 -135.211 16.7052 -174.887 -142.756 51.9111 178.617 -2.39927 -23.2249 -36.8383 -123.005 0.934334 -88.5517 17.1147 5.31346 -72.683 0.420957 0.000576128 0.35866 -1.92292 7.9797 38.3619 -53.0884 -22.5859 152.283 9.56163 3.01384 106.933 0.58676 0.000331187 0.0646652 -24.746 17.3455 82.5918 -7.2922 60.5856 -13.7286 -6.4273 -5.21282 0.0399856 8.34992 -17.7175 9.16953 -54.6623 -10.0811 82.8087 3.86346 52.8378 4.1521 5.58716 -33.535 3.91649 3.01178 -1.10906 -18.9475 
81.781 86.131 -0.0868001 -73.5871 -37.1245 -164.931 -70.1915 0 88.8779 95.5768 70.9736 -0.890972 6.96914 20.403 1.92649 -136.22 15.3706 -169.377 -143.497 49.908 -179.207 -2.12658 -22.083 -37.1581 -128.13 -1.59195 -83.5749 16.6941 5.47214 -71.7896 0.420957 0.000576128 0.35866 -2.0778 8.43991 38.8088 -51.8434 -20.734 151.185 8.42752 2.5787 106.472 0.58676 0.000331187 0.0646652 -26.9716 19.4762 82.1822 -7.21566 62.0912 -9.40538 -3.70396 -8.15558 -0.519466 8.55585 -18.0623 10.2601 -51.8623 -9.03953 86.73 5.09966 56.2229 7.23821 6.58943 -35.3405 4.38648 3.15984 -1.83077 -20.1678 
82.2668 85.3878 -0.961512 -76.2176 -33.1756 -167.372 -70.1915 0 88.8779 100.306 70.1457 -5.30927 9.08264 19.8319 -0.0474829 -136.525 13.8518 -167.865 -141.693 47.7761 -179.831 -1.88073 -21.289 -36.8852 -131.235 -2.88322 -80.2051 14.7161 5.23882 -70.2831 0.420957 0.000576128 0.35866 -2.22756 8.1685 41.5018 -51.1527 -18.1897 149.129 8.96945 2.66634 106.018 0.58676 0.000331187 0.0646652 -29.1331 21.0016 82.808 -7.01751 62.862 -6.07114 -2.55733 -11.5355 -0.934567 7.5789 -16.4802 10.4532 -50.036 -7.53702 90.2546 5.90606 59.0174 7.99627 8.14285 -37.2636 5.04151 3.31576 -2.4258 -21.4933 
82.83 85.1542 -0.858086 -77.5646 -32.2316 -168.64 -70.1915 0 88.8779 99.7387 69.4109 -6.3494 10.2536 18.8143 1.40001 -136.031 13.0254 -167.224 -141.427 46.6582 -179.84 -1.9825 -21.3283 -37.7327 -132.455 -3.94352 -78.6162 14.8009 5.67984 -68.9314 0.420957 0.000576128 0.35866 -2.23488 8.13152 41.7195 -49.7828 -19.3042 147.062 7.10623 2.20774 106.713 0.58676 0.000331187 0.0646652 -29.9776 20.227 82.5174 -7.16975 63.78 -4.96394 -1.74909 -11.6557 -0.968482 6.41482 -14.6688 11.7399 -50.1535 -9.1766 89.5809 6.05906 59.5844 7.50692 9.31575 -37.204 5.29046 3.23734 -2.3394 -20.902 
83.1845 85.1475 -0.774514 -77.9781 -30.5091 -170.079 -70.1915 0 88.8779 100.103 69.4559 -6.84489 10.1742 19.1172 0.414502 -135.218 12.4614 -168.04 -141.31 46.0539 179.972 -1.89014 -21.1292 -37.3825 -132.067 -3.79082 -77.1767 15.6717 6.12487 -68.6346 0.420957 0.000576128 0.35866 -2.22384 7.99193 42.0784 -48.3773 -20.2713 145.302 10.9482 3.38058 106.577 0.58676 0.000331187 0.0646652 -31.0544 20.8216 84.6204 -6.95581 63.4775 -4.53312 -1.62288 -11.6108 -0.967536 5.8594 -13.7246 11.1574 -48.92 -9.97701 90.9388 6.28905 60.3704 7.32651 8.75041 -36.443 5.02406 3.27495 -2.32232 -21.1596 
83.3495 85.1852 -0.67658 -78.7902 -27.9588 -172.292 -70.1915 0 88.8779 101.386 70.0952 -8.61405 10.1045 20.0342 -0.430609 -135.104 12.1026 -167.645 -141.56 45.7344 -179.327 -1.84887 -20.8409 -37.7495 -132 -4.08249 -76.7564 16.4177 6.57064 -68.2274 0.420957 0.000576128 0.35866 -2.20457 8.26339 40.8997 -47.3692 -21.6526 144.772 9.88669 3.04751 106.58 0.58676 0.000331187 0.0646652 -33.2594 22.124 88.1734 -6.7828 62.9492 -4.71566 -1.766 -11.1658 -0.920667 5.775 -13.5782 11.0626 -47.7279 -10.0218 93.9925 6.54398 61.2086 7.20493 7.97324 -35.8397 4.75212 3.25923 -2.24488 -21.0164 
83.5427 85.454 -0.408586 -79.0199 -26.6693 -172.949 -70.1915 0 88.8779 102.313 70.1274 -9.21034 9.70824 20.2584 -0.773497 -135.157 11.7783 -167.109 -141.985 45.4117 -178.875 -1.73697 -20.4406 -37.7404 -131.935 -4.31965 -76.3184 16.9642 6.77008 -68.3125 0.420957 0.000576128 0.35866 -2.2244 8.59911 40.04 -46.3065 -21.8249 145.702 12.2173 3.61848 105.93 0.58676 0.000331187 0.0646652 -34.3417 22.8958 90.0185 -6.51134 62.2767 -4.71379 -1.99347 -10.5018 -0.848221 5.48633 -13.0833 10.8412 -47.554 -10.0777 94.9887 6.40603 60.5076 7.80493 8.03625 -35.0387 4.62425 3.21608 -2.14003 -20.6724 
83.5388 85.6438 -0.173724 -78.566 -26.1908 -173.078 -70.1915 0 88.8779 100.75 70.3853 -7.50534 9.31912 20.4465 -0.736131 -134.452 12.0414 -167.037 -142.034 45.6508 -178.386 -1.71696 -20.3558 -37.7757 -131.9 -4.11758 -77.0081 16.5364 6.95736 -67.2584 0.420957 0.000576128 0.35866 -2.19348 8.43125 40.2131 -46.3617 -20.8598 144.999 11.8969 3.53907 106.011 0.58676 0.000331187 0.0646652 -34.467 23.1803 91.087 -6.37334 61.86 -4.80278 -2.05044 -10.4045 -0.836496 5.15542 -12.4773 10.3139 -46.866 -10.1476 95.4756 6.30677 60.4099 7.42508 6.43429 -33.1581 4.01139 2.92424 -1.40143 -18.4446 
83.5537 85.9284 -0.0104396 -78.3718 -25.9667 -173.17 -70.1915 0 88.8779 98.3481 70.5164 -5.28748 9.62936 20.3986 -0.464243 -134.523 12.0372 -166.876 -142.146 45.5723 -178.678 -1.58479 -20.0111 -37.3885 -132.066 -3.60419 -76.6883 16.3278 6.91085 -67.1216 0.420957 0.000576128 0.35866 -2.16829 8.54099 39.5659 -46.6438 -20.6702 145.929 12.7073 3.77019 105.95 0.58676 0.000331187 0.0646652 -34.8534 23.5063 92.163 -6.13456 61.1701 -4.85785 -1.99302 -10.2033 -0.818883 4.83885 -11.8308 9.40098 -46.652 -9.96434 95.8998 6.07415 60.0877 6.66539 4.53164 -31.0372 3.38579 2.52214 -0.611577 -15.6823 
